<?xml version="1.0" standalone="no"?>
<!DOCTYPE svg PUBLIC "-//W3C//DTD SVG 20010904//EN"
 "http://www.w3.org/TR/2001/REC-SVG-20010904/DTD/svg10.dtd">
<svg version="1.0" xmlns="http://www.w3.org/2000/svg"
 width="167.000000pt" height="50.000000pt" viewBox="0 0 167.000000 50.000000"
 preserveAspectRatio="xMidYMid meet">
<metadata>
Created by potrace 1.16, written by Peter Selinger 2001-2019
</metadata>
<g transform="translate(0.000000,50.000000) scale(0.100000,-0.100000)"
fill="#FFF" stroke="none">
<path d="M51 443 c-39 -47 -48 -86 -27 -118 21 -33 39 -33 24 0 -8 18 -8 35 2
69 14 53 36 77 46 53 8 -21 -2 -303 -12 -319 -4 -7 3 -4 15 8 12 12 26 36 30
55 8 39 5 264 -4 279 -13 20 -44 9 -74 -27z"/>
<path d="M560 446 c0 -33 -2 -36 -31 -36 -17 0 -28 -4 -24 -10 3 -5 17 -10 31
-10 24 0 25 -2 23 -57 -1 -32 -6 -66 -11 -75 -5 -11 -5 -18 0 -18 5 0 12 -13
15 -29 10 -51 68 -64 82 -20 7 20 25 27 25 9 0 -5 11 -17 26 -26 24 -16 26
-16 55 5 l31 23 14 -21 c18 -25 31 -26 56 -4 17 15 19 15 36 0 23 -21 29 -21
65 -3 41 22 34 0 -18 -55 -48 -52 -54 -69 -29 -93 22 -23 57 -20 81 6 23 25
47 161 33 188 -4 8 -6 44 -5 78 l2 64 -29 -6 c-16 -3 -28 -1 -28 5 0 6 -12 9
-27 7 -39 -5 -63 -44 -66 -108 -3 -60 -11 -80 -31 -80 -18 0 -26 32 -26 111 0
50 -4 68 -15 73 -8 3 -15 0 -15 -6 0 -7 -4 -7 -12 -1 -42 32 -91 -7 -103 -80
-8 -50 -30 -87 -50 -87 -12 0 -15 18 -15 100 l0 100 30 0 c17 0 30 5 30 10 0
6 -3 9 -7 9 -38 -6 -52 3 -55 33 -2 22 -9 34 -20 36 -15 3 -18 -4 -18 -32z"/>
<path d="M1067 367 c-3 -7 -3 -25 0 -39 3 -14 -4 -44 -16 -68 -11 -24 -19 -45
-17 -48 6 -6 57 85 59 105 0 12 9 18 23 18 21 0 22 -3 17 -42 -8 -63 3 -108
32 -123 22 -12 27 -11 44 5 19 16 21 16 36 1 21 -21 38 -20 66 3 24 19 24 19
46 -1 21 -20 24 -20 48 -4 22 14 25 15 25 1 0 -8 8 -15 19 -15 15 0 20 10 25
48 16 110 46 151 46 61 0 -89 43 -127 53 -46 2 23 11 56 18 72 13 29 13 29 19
-36 5 -66 21 -99 46 -99 17 0 18 12 2 28 -7 7 -15 47 -18 89 -4 67 -8 77 -27
84 -20 7 -24 4 -34 -34 -19 -70 -23 -74 -27 -25 -6 84 -46 87 -73 6 l-14 -43
-3 53 c-2 35 -7 52 -16 52 -10 0 -15 -21 -18 -80 -2 -57 -8 -84 -20 -96 -30
-30 -43 -2 -40 84 4 77 -8 103 -35 80 -9 -7 -13 -7 -13 0 0 9 -16 10 -63 3
-15 -2 -37 -70 -37 -114 0 -27 -6 -49 -15 -57 -27 -23 -37 -1 -33 79 l3 76
-37 3 c-25 2 -38 8 -38 18 0 18 -26 19 -33 1z"/>
<path d="M180 277 c0 -73 4 -98 15 -107 19 -16 16 -20 43 66 12 39 31 79 42
89 23 21 22 23 20 -68 -2 -112 29 -122 90 -27 18 27 37 50 42 50 18 0 49 -43
46 -65 -2 -16 -9 -20 -41 -18 -26 2 -37 -2 -37 -11 0 -35 69 -34 109 1 30 27
45 57 16 33 -13 -10 -15 -9 -15 9 0 13 -14 34 -30 48 -30 25 -37 59 -15 75 5
4 1 10 -9 14 -25 10 -55 -26 -49 -58 2 -14 -8 -42 -28 -73 l-32 -50 -10 35
c-5 19 -7 55 -4 79 5 49 -10 75 -41 69 -9 -2 -29 -27 -44 -56 l-27 -53 -3 53
c-2 41 -7 54 -20 56 -16 3 -18 -6 -18 -91z"/>
</g>
</svg>
